<svg width="24" height="24" viewBox="0 0 24 24" fill="none" xmlns="http://www.w3.org/2000/svg">
<g id="bx:bx-git-compare">
<path id="Vector" opacity="0.6" d="M6.00977 2C4.07977 2 2.50977 3.57 2.50977 5.5C2.50977 7.08 3.56977 8.403 5.00977 8.837V15.997C5.00877 16.176 5.03677 17.778 6.18377 18.928C6.89177 19.64 7.83977 20 8.99977 20V22L12.9998 19L8.99977 16V18C7.17677 18 7.01577 16.466 7.00977 16V8.837C8.44977 8.403 9.50977 7.08 9.50977 5.5C9.50977 3.57 7.93877 2 6.00977 2ZM6.00977 7C5.18277 7 4.50977 6.327 4.50977 5.5C4.50977 4.673 5.18277 4 6.00977 4C6.83677 4 7.50977 4.673 7.50977 5.5C7.50977 6.327 6.83677 7 6.00977 7ZM19.0098 15.163V7.997C19.0048 6.391 17.9328 4 14.9998 4V2L10.9998 5L14.9998 8V6C16.8288 6 17.0008 7.539 17.0098 8V15.163C15.5698 15.597 14.5098 16.92 14.5098 18.5C14.5098 20.43 16.0798 22 18.0098 22C19.9398 22 21.5098 20.43 21.5098 18.5C21.5098 16.92 20.4498 15.597 19.0098 15.163ZM18.0098 20C17.1828 20 16.5098 19.327 16.5098 18.5C16.5098 17.673 17.1828 17 18.0098 17C18.8368 17 19.5098 17.673 19.5098 18.5C19.5098 19.327 18.8368 20 18.0098 20Z" fill="black"/>
</g>
</svg>
