<svg width="22" height="22" viewBox="0 0 22 22" fill="none" xmlns="http://www.w3.org/2000/svg">
<g id="ci:share" opacity="0.4">
<g id="Group">
<path id="Vector" d="M5.04231 13.7499C5.84408 13.7475 6.61551 13.4431 7.20289 12.8974L12.9412 16.1763C12.749 16.9276 12.8337 17.723 13.18 18.417C13.5262 19.1109 14.1109 19.6569 14.8268 19.955C15.5427 20.2531 16.342 20.2834 17.0785 20.0404C17.8149 19.7973 18.4392 19.2971 18.837 18.6314C19.2348 17.9657 19.3795 17.179 19.2447 16.4153C19.1098 15.6516 18.7045 14.962 18.1027 14.4727C17.501 13.9835 16.7432 13.7273 15.9681 13.7511C15.1929 13.7749 14.4523 14.0771 13.8817 14.6024L8.14339 11.3235C8.20389 11.0943 8.23689 10.8569 8.24239 10.6195L13.8799 7.39741C14.4227 7.89128 15.1189 8.18345 15.8516 8.2249C16.5843 8.26634 17.309 8.05454 17.904 7.62503C18.4991 7.19552 18.9283 6.57442 19.1198 5.86595C19.3112 5.15748 19.2531 4.40472 18.9553 3.73398C18.6575 3.06323 18.1381 2.51531 17.4842 2.18212C16.8304 1.84893 16.0818 1.75076 15.3641 1.90406C14.6464 2.05737 14.0033 2.45283 13.5426 3.0241C13.0819 3.59537 12.8317 4.3077 12.834 5.04157C12.8376 5.30557 12.8734 5.56866 12.9412 5.82349L7.73089 8.79991C7.42874 8.33246 7.01018 7.95167 6.51633 7.69493C6.02248 7.4382 5.47033 7.31436 4.91414 7.33558C4.35795 7.3568 3.81684 7.52235 3.34399 7.81597C2.87114 8.10959 2.48281 8.52117 2.21715 9.01028C1.95149 9.49938 1.81765 10.0492 1.82877 10.6057C1.83989 11.1622 1.99559 11.7062 2.28057 12.1843C2.56556 12.6624 2.97002 13.0581 3.45422 13.3326C3.93843 13.6071 4.48571 13.7509 5.04231 13.7499Z" fill="black"/>
</g>
</g>
</svg>
