<svg width="29" height="29" viewBox="0 0 29 29" fill="none" xmlns="http://www.w3.org/2000/svg">
<g id="ei:heart">
<path id="Vector" opacity="0.6" d="M14.5006 23.0258L14.1526 22.7358C6.67062 16.6458 4.64062 14.4998 4.64062 11.0198C4.64062 8.1198 6.96062 5.7998 9.86062 5.7998C12.2386 5.7998 13.5726 7.1338 14.5006 8.1778C15.4286 7.1338 16.7626 5.7998 19.1406 5.7998C22.0406 5.7998 24.3606 8.1198 24.3606 11.0198C24.3606 14.4998 22.3306 16.6458 14.8486 22.7358L14.5006 23.0258ZM9.86062 6.9598C7.59862 6.9598 5.80062 8.7578 5.80062 11.0198C5.80062 13.9778 7.65662 15.9498 14.5006 21.5178C21.3446 15.9498 23.2006 13.9778 23.2006 11.0198C23.2006 8.7578 21.4026 6.9598 19.1406 6.9598C17.1106 6.9598 16.0086 8.1778 15.1386 9.1638L14.5006 9.9178L13.8626 9.1638C12.9926 8.1778 11.8906 6.9598 9.86062 6.9598Z" fill="black"/>
</g>
</svg>
