<svg width="30" height="29" viewBox="0 0 30 29" fill="none" xmlns="http://www.w3.org/2000/svg">
<g id="flat-color-icons:google">
<path id="Vector" d="M26.3856 12.034H25.4202V11.9843H14.6345V16.7779H21.4073C20.4193 19.5684 17.7642 21.5716 14.6345 21.5716C10.6636 21.5716 7.44404 18.352 7.44404 14.3811C7.44404 10.4102 10.6636 7.19062 14.6345 7.19062C16.4675 7.19062 18.1351 7.88211 19.4048 9.01161L22.7945 5.6219C20.6541 3.62714 17.7911 2.39697 14.6345 2.39697C8.01628 2.39697 2.65039 7.76287 2.65039 14.3811C2.65039 20.9993 8.01628 26.3652 14.6345 26.3652C21.2528 26.3652 26.6186 20.9993 26.6186 14.3811C26.6186 13.5776 26.536 12.7932 26.3856 12.034Z" fill="#FFC107"/>
<path id="Vector_2" d="M4.0332 8.80309L7.97059 11.6907C9.03598 9.05296 11.6162 7.19062 14.6356 7.19062C16.4685 7.19062 18.1361 7.88211 19.4058 9.01161L22.7956 5.6219C20.6552 3.62714 17.7922 2.39697 14.6356 2.39697C10.0325 2.39697 6.04054 4.99573 4.0332 8.80309Z" fill="#FF3D00"/>
<path id="Vector_3" d="M14.6357 26.365C17.7312 26.365 20.5438 25.1804 22.6704 23.2539L18.9613 20.1153C17.7177 21.0611 16.1981 21.5726 14.6357 21.5714C11.5186 21.5714 8.8719 19.5838 7.87482 16.8101L3.9668 19.8211C5.95017 23.7021 9.97803 26.365 14.6357 26.365Z" fill="#4CAF50"/>
<path id="Vector_4" d="M26.3858 12.0341H25.4205V11.9844H14.6348V16.778H21.4076C20.9349 18.1061 20.0836 19.2666 18.9586 20.1162L18.9604 20.115L22.6695 23.2536C22.4071 23.4921 26.6189 20.3733 26.6189 14.3812C26.6189 13.5777 26.5362 12.7933 26.3858 12.0341Z" fill="#1976D2"/>
</g>
</svg>
