<svg width="24" height="19" viewBox="0 0 24 19" fill="none" xmlns="http://www.w3.org/2000/svg">
<g id="logos:twitter" clip-path="url(#clip0_776_651)">
<path id="Vector" d="M23.5035 2.6541C22.6663 3.02532 21.7667 3.27621 20.8225 3.38908C21.7864 2.8114 22.5264 1.89663 22.8749 0.806694C21.9586 1.35041 20.9562 1.73349 19.9109 1.93938C19.0594 1.03225 17.8463 0.465332 16.5037 0.465332C13.9259 0.465332 11.8359 2.55527 11.8359 5.13295C11.8359 5.49884 11.8772 5.85504 11.9567 6.19676C8.07741 6.00204 4.63802 4.14379 2.33576 1.31976C1.93405 2.00915 1.70387 2.81105 1.70387 3.66636C1.70387 5.28581 2.52799 6.71445 3.78039 7.55154C3.03915 7.52833 2.31421 7.32812 1.6661 6.96764C1.66584 6.9872 1.66584 7.00675 1.66584 7.02639C1.66584 9.28794 3.27479 11.1745 5.41006 11.6034C4.7227 11.7903 4.00171 11.8176 3.30217 11.6833C3.89611 13.5378 5.61998 14.8872 7.66246 14.925C6.06497 16.1769 4.05226 16.9231 1.86544 16.9231C1.48862 16.9231 1.11713 16.901 0.751953 16.8579C2.81763 18.1823 5.27115 18.955 7.90713 18.955C16.4929 18.955 21.1878 11.8424 21.1878 5.67427C21.1878 5.47182 21.1833 5.27052 21.1743 5.07038C22.0881 4.40977 22.8768 3.59155 23.5035 2.6541Z" fill="#55ACEE"/>
</g>
<defs>
<clipPath id="clip0_776_651">
<rect width="22.7515" height="18.5745" fill="white" transform="translate(0.751953 0.392578)"/>
</clipPath>
</defs>
</svg>
