<svg width="23" height="24" viewBox="0 0 23 24" fill="none" xmlns="http://www.w3.org/2000/svg">
<g id="logos:facebook" clip-path="url(#clip0_776_648)">
<path id="Vector" d="M21.4958 23.7477C22.1892 23.7477 22.7515 23.1855 22.7515 22.492V2.25178C22.7515 1.55822 22.1892 0.996094 21.4958 0.996094H1.25569C0.562034 0.996094 0 1.55822 0 2.25178V22.492C0 23.1855 0.562034 23.7477 1.25569 23.7477H21.4958Z" fill="#395185"/>
<path id="Vector_2" d="M15.6983 23.7479V14.9373H18.6557L19.0985 11.5037H15.6983V9.3114C15.6983 8.31726 15.9744 7.63978 17.4 7.63978L19.2183 7.63898V4.56797C18.9036 4.52611 17.8244 4.43262 16.5688 4.43262C13.9472 4.43262 12.1525 6.03278 12.1525 8.97146V11.5037H9.1875V14.9373H12.1525V23.7479H15.6983Z" fill="white"/>
</g>
<defs>
<clipPath id="clip0_776_648">
<rect width="22.7515" height="22.7515" fill="white" transform="translate(0 0.996094)"/>
</clipPath>
</defs>
</svg>
