<svg width="24" height="24" viewBox="0 0 24 24" fill="none" xmlns="http://www.w3.org/2000/svg">
<g id="logos:pinterest" clip-path="url(#clip0_776_653)">
<path id="Vector" d="M0.503906 12.372C0.503906 17.0302 3.30501 21.032 7.31328 22.7914C7.28128 21.9971 7.30759 21.0435 7.51128 20.1792C7.73 19.2557 8.97503 13.9805 8.97503 13.9805C8.97503 13.9805 8.61162 13.2541 8.61162 12.1806C8.61162 10.4948 9.58869 9.2357 10.8055 9.2357C11.8403 9.2357 12.3402 10.0129 12.3402 10.9436C12.3402 11.9837 11.6768 13.5396 11.3356 14.9807C11.0506 16.1874 11.9406 17.1717 13.1311 17.1717C15.2864 17.1717 16.7381 14.4034 16.7381 11.1235C16.7381 8.63021 15.0588 6.76405 12.0045 6.76405C8.55377 6.76405 6.40402 9.33746 6.40402 12.212C6.40402 13.2031 6.69623 13.902 7.15393 14.4432C7.36438 14.6918 7.39362 14.7918 7.31745 15.0772C7.26288 15.2865 7.13757 15.7904 7.08567 15.9901C7.00995 16.2783 6.77648 16.3813 6.51608 16.2749C4.92668 15.626 4.18645 13.8854 4.18645 11.9288C4.18645 8.6973 6.91184 4.82244 12.3167 4.82244C16.66 4.82244 19.5186 7.96535 19.5186 11.3391C19.5186 15.8016 17.0376 19.1355 13.3805 19.1355C12.1523 19.1355 10.9971 18.4717 10.6013 17.7176C10.6013 17.7176 9.9409 20.3386 9.80101 20.8447C9.55981 21.7218 9.08772 22.5985 8.65606 23.2817C9.70277 23.5912 10.7886 23.7483 11.8801 23.7482C18.162 23.7482 23.2555 18.655 23.2555 12.372C23.2555 6.08932 18.162 0.996094 11.8801 0.996094C5.59758 0.996094 0.503906 6.08932 0.503906 12.372Z" fill="#CB1F27"/>
</g>
<defs>
<clipPath id="clip0_776_653">
<rect width="22.7515" height="22.7515" fill="white" transform="translate(0.503906 0.996094)"/>
</clipPath>
</defs>
</svg>
