<svg width="103" height="18" viewBox="0 0 103 18" fill="none" xmlns="http://www.w3.org/2000/svg">
<path d="M18.3859 6.33831L12.6901 5.51709L10.1439 0.396152C10.0743 0.255944 9.95993 0.142442 9.8186 0.0734507C9.46415 -0.100141 9.03343 0.0445188 8.85621 0.396152L6.31002 5.51709L0.614191 6.33831C0.457157 6.36057 0.313583 6.43401 0.20366 6.54529C0.0707685 6.68079 -0.00246073 6.86309 6.31408e-05 7.05213C0.00258702 7.24117 0.0806575 7.42149 0.21712 7.55345L4.33813 11.5394L3.36452 17.1677C3.34169 17.2987 3.35629 17.4333 3.40668 17.5564C3.45706 17.6795 3.54121 17.7862 3.64958 17.8643C3.75795 17.9424 3.8862 17.9887 4.0198 17.9982C4.1534 18.0077 4.28699 17.9798 4.40543 17.9177L9.50004 15.2605L14.5947 17.9177C14.7337 17.9912 14.8953 18.0157 15.0501 17.989C15.4404 17.9222 15.7029 17.555 15.6356 17.1677L14.662 11.5394L18.783 7.55345C18.8951 7.4444 18.9692 7.30197 18.9916 7.14618C19.0522 6.75671 18.7785 6.39618 18.3859 6.33831Z" fill="#FBB03B"/>
<path d="M39.3859 6.33831L33.6901 5.51709L31.1439 0.396152C31.0743 0.255944 30.9599 0.142442 30.8186 0.0734507C30.4642 -0.100141 30.0334 0.0445188 29.8562 0.396152L27.31 5.51709L21.6142 6.33831C21.4572 6.36057 21.3136 6.43401 21.2037 6.54529C21.0708 6.68079 20.9975 6.86309 21.0001 7.05213C21.0026 7.24117 21.0807 7.42149 21.2171 7.55345L25.3381 11.5394L24.3645 17.1677C24.3417 17.2987 24.3563 17.4333 24.4067 17.5564C24.4571 17.6795 24.5412 17.7862 24.6496 17.8643C24.7579 17.9424 24.8862 17.9887 25.0198 17.9982C25.1534 18.0077 25.287 17.9798 25.4054 17.9177L30.5 15.2605L35.5947 17.9177C35.7337 17.9912 35.8953 18.0157 36.0501 17.989C36.4404 17.9222 36.7029 17.555 36.6356 17.1677L35.662 11.5394L39.783 7.55345C39.8951 7.4444 39.9692 7.30197 39.9916 7.14618C40.0522 6.75671 39.7785 6.39618 39.3859 6.33831Z" fill="#FBB03B"/>
<path d="M60.3859 6.33831L54.6901 5.51709L52.1439 0.396152C52.0743 0.255944 51.9599 0.142442 51.8186 0.0734507C51.4642 -0.100141 51.0334 0.0445188 50.8562 0.396152L48.31 5.51709L42.6142 6.33831C42.4572 6.36057 42.3136 6.43401 42.2037 6.54529C42.0708 6.68079 41.9975 6.86309 42.0001 7.05213C42.0026 7.24117 42.0807 7.42149 42.2171 7.55345L46.3381 11.5394L45.3645 17.1677C45.3417 17.2987 45.3563 17.4333 45.4067 17.5564C45.4571 17.6795 45.5412 17.7862 45.6496 17.8643C45.7579 17.9424 45.8862 17.9887 46.0198 17.9982C46.1534 18.0077 46.287 17.9798 46.4054 17.9177L51.5 15.2605L56.5947 17.9177C56.7337 17.9912 56.8953 18.0157 57.0501 17.989C57.4404 17.9222 57.7029 17.555 57.6356 17.1677L56.662 11.5394L60.783 7.55345C60.8951 7.4444 60.9692 7.30197 60.9916 7.14618C61.0522 6.75671 60.7785 6.39618 60.3859 6.33831Z" fill="#FBB03B"/>
<path d="M81.3859 6.33831L75.6901 5.51709L73.1439 0.396152C73.0743 0.255944 72.9599 0.142442 72.8186 0.0734507C72.4642 -0.100141 72.0334 0.0445188 71.8562 0.396152L69.31 5.51709L63.6142 6.33831C63.4572 6.36057 63.3136 6.43401 63.2037 6.54529C63.0708 6.68079 62.9975 6.86309 63.0001 7.05213C63.0026 7.24117 63.0807 7.42149 63.2171 7.55345L67.3381 11.5394L66.3645 17.1677C66.3417 17.2987 66.3563 17.4333 66.4067 17.5564C66.4571 17.6795 66.5412 17.7862 66.6496 17.8643C66.7579 17.9424 66.8862 17.9887 67.0198 17.9982C67.1534 18.0077 67.287 17.9798 67.4054 17.9177L72.5 15.2605L77.5947 17.9177C77.7337 17.9912 77.8953 18.0157 78.0501 17.989C78.4404 17.9222 78.7029 17.555 78.6356 17.1677L77.662 11.5394L81.783 7.55345C81.8951 7.4444 81.9692 7.30197 81.9916 7.14618C82.0522 6.75671 81.7785 6.39618 81.3859 6.33831Z" fill="#FBB03B"/>
<path d="M102.386 6.33831L96.6901 5.51709L94.1439 0.396152C94.0743 0.255944 93.9599 0.142442 93.8186 0.0734507C93.4642 -0.100141 93.0334 0.0445188 92.8562 0.396152L90.31 5.51709L84.6142 6.33831C84.4572 6.36057 84.3136 6.43401 84.2037 6.54529C84.0708 6.68079 83.9975 6.86309 84.0001 7.05213C84.0026 7.24117 84.0807 7.42149 84.2171 7.55345L88.3381 11.5394L87.3645 17.1677C87.3417 17.2987 87.3563 17.4333 87.4067 17.5564C87.4571 17.6795 87.5412 17.7862 87.6496 17.8643C87.7579 17.9424 87.8862 17.9887 88.0198 17.9982C88.1534 18.0077 88.287 17.9798 88.4054 17.9177L93.5 15.2605L98.5947 17.9177C98.7337 17.9912 98.8953 18.0157 99.0501 17.989C99.4404 17.9222 99.7029 17.555 99.6356 17.1677L98.662 11.5394L102.783 7.55345C102.895 7.4444 102.969 7.30197 102.992 7.14618C103.052 6.75671 102.778 6.39618 102.386 6.33831Z" fill="#FBB03B"/>
</svg>
